<svg width="17" height="15" viewBox="0 0 17 15" fill="none" xmlns="http://www.w3.org/2000/svg">
<path d="M6.53906 9.81641C6.53906 9.07812 6.15234 7.88281 5.23828 7.88281C4.32422 7.88281 3.9375 9.07812 3.9375 9.81641C3.9375 10.5547 4.32422 11.75 5.23828 11.75C6.15234 11.75 6.53906 10.5547 6.53906 9.81641ZM16.875 8.05859C16.875 6.58203 16.4531 5.17578 15.5039 4.01562C15.6797 3.48828 15.75 2.92578 15.75 2.32812C15.75 1.58984 15.5742 1.20312 15.2578 0.5C13.6758 0.5 12.6562 0.816406 11.4609 1.76562C10.5469 1.51953 9.5625 1.41406 8.61328 1.41406C7.59375 1.41406 6.53906 1.55469 5.51953 1.76562C4.28906 0.816406 3.26953 0.5 1.6875 0.5C1.33594 1.20312 1.16016 1.58984 1.16016 2.32812C1.16016 2.92578 1.26562 3.48828 1.44141 4.05078C0.457031 5.17578 0 6.58203 0 8.05859C0 9.18359 0.175781 10.3789 0.703125 11.3984C2.07422 14.1055 5.97656 14 8.61328 14C11.25 14 14.9062 14.0703 16.2422 11.3984C16.7344 10.3438 16.875 9.18359 16.875 8.05859ZM14.5898 9.81641C14.5898 12.9102 11.7773 13.3672 9.31641 13.3672H7.59375C5.13281 13.3672 2.32031 12.9102 2.32031 9.81641C2.32031 8.26953 3.26953 6.93359 4.92188 6.93359C5.58984 6.93359 6.22266 7.03906 6.89062 7.14453C7.41797 7.21484 7.91016 7.25 8.47266 7.25C9 7.25 9.52734 7.21484 10.0547 7.14453C10.7227 7.03906 11.3555 6.93359 12.0234 6.93359C13.6758 6.93359 14.5898 8.26953 14.5898 9.81641ZM11.707 7.88281C10.793 7.88281 10.4062 9.07812 10.4062 9.81641C10.4062 10.5547 10.793 11.75 11.707 11.75C12.5859 11.75 12.9727 10.5547 12.9727 9.81641C12.9727 9.07812 12.5859 7.88281 11.707 7.88281Z" fill="#151515"/>
</svg>
